Coordinates
version=1
nRows=8
nColumns=34
inDegrees=yes

Units are S.I. units (second, meters, Newtons, ...)
If the header above contains a line with 'inDegrees', this indicates whether rotational values are in degrees (yes) or radians (no).

endheader
time	pelvis_tilt	pelvis_list	pelvis_rotation	pelvis_tx	pelvis_ty	pelvis_tz	hip_flexion_r	hip_adduction_r	hip_rotation_r	knee_angle_r	ankle_angle_r	subtalar_angle_r	mtp_angle_r	hip_flexion_l	hip_adduction_l	hip_rotation_l	knee_angle_l	ankle_angle_l	subtalar_angle_l	mtp_angle_l	lumbar_extension	lumbar_bending	lumbar_rotation	arm_flex_r	arm_add_r	arm_rot_r	elbow_flex_r	pro_sup_r	arm_flex_l	arm_add_l	arm_rot_l	elbow_flex_l	pro_sup_l
      0.00000000	     -2.39138232	     -0.74349191	     -5.06190368	      1.67231901	      0.87030075	      0.01290880	      0.71281107	     -2.72383093	     -4.36657406	      4.92868307	      1.97435949	    -16.19876099	      0.00000000	     -0.56150360	     -4.46910515	     -2.87888351	      3.84065574	      6.64971413	     -6.36699224	      0.00000000	     -6.06869293	      2.63859878	     -2.83967610	     11.62526687	     -6.60433602	     37.17944604	     69.88608369	     91.84442309	      7.90259720	     -3.03039142	     33.81263769	     58.61486471	     79.52303486
      0.01666670	     -3.67136071	     -0.55021634	     -4.78844791	      1.67299177	      0.86873870	      0.01170223	      2.48628585	     -2.55170587	     -2.90619576	      5.47336733	      5.09978630	    -15.65570066	      0.00000000	      1.59601774	     -3.98563673	     -1.60800939	      3.93572920	      7.26621979	     -6.13997403	      0.00000000	     -3.82501304	      2.93785842	     -3.19713346	     11.03350699	     -6.24754367	     35.62759304	     68.52161896	     91.24810819	      7.40040772	     -2.99352683	     33.19105285	     57.71828429	     79.23037475
      0.03333330	     -3.72197344	      0.18914453	     -4.83202243	      1.67218534	      0.86818344	      0.01181201	      2.39589616	     -3.40408834	     -2.98180922	      4.80261491	      5.34945457	    -15.61571514	      0.00000000	      1.61034390	     -3.29226007	     -1.41854403	      3.51522107	      7.16858282	     -5.99494681	      0.00000000	     -3.64544086	      1.96703263	     -2.67087478	     11.09685787	     -5.87036464	     35.05791344	     67.52139474	     91.08339528	      7.93403171	     -3.42624181	     32.80274004	     57.39148576	     79.10254684
      0.05000000	     -3.62360759	      0.62400856	     -4.69132174	      1.67170294	      0.86890513	      0.01201003	      2.06863951	     -3.96426547	     -2.71033225	      4.29688529	      5.60983961	    -15.68177182	      0.00000000	      1.23745244	     -2.79993403	     -0.86742383	      3.03610167	      7.25475066	     -6.04189439	      0.00000000	     -3.57292204	      1.32801157	     -2.36305181	     10.90797381	     -5.84286029	     35.15751361	     67.32974607	     91.07832596	      8.22492011	     -3.81030798	     32.67464116	     57.32200967	     79.11011164
      0.06666670	     -2.72200293	      0.80093598	     -4.74019555	      1.67101066	      0.87083466	      0.01256449	      0.84485122	     -4.20045939	     -2.32125114	      3.76838611	      5.50598593	    -16.34825520	      0.00000000	     -0.20032315	     -2.48873861	     -0.11048190	      2.14402850	      6.51312515	     -7.10995818	      0.00000000	     -4.72141993	      1.05205763	     -1.89436493	     11.18817287	     -5.90579948	     35.64783931	     67.31718431	     91.05176338	      8.93209595	     -3.93785579	     33.52114871	     57.24689413	     79.43850754
      0.08333330	     -2.71261609	      0.87342481	     -4.64829369	      1.67055922	      0.87110553	      0.01306819	      0.73412385	     -4.21436814	     -2.19894059	      3.56899272	      5.61983221	    -16.43452496	      0.00000000	     -0.23069946	     -2.41704905	      0.14583418	      2.03405871	      6.56734213	     -7.11358295	      0.00000000	     -4.65651168	      0.98922562	     -1.76387161	     11.25199784	     -5.73198423	     35.77832761	     67.47686117	     91.05360831	      9.07112873	     -3.96963739	     33.56795066	     57.28771868	     79.47020443
      0.10000000	     -2.00194043	      0.89102149	     -4.50979845	      1.67020604	      0.87161223	      0.01305483	     -0.30364793	     -4.23433744	     -1.75647513	      3.07229166	      5.12121919	    -17.78396828	      0.00000000	     -1.13859655	     -2.30535938	      1.26684665	      1.70691231	      6.17101450	     -8.32766877	      0.00000000	     -5.71123175	      0.83540857	     -1.74764625	     11.55469937	     -6.55886697	     37.32140255	     69.35544487	     91.01263613	      9.84348963	     -4.37514419	     35.16578053	     57.52431656	     80.07715063
      0.11666670	     -1.94992689	      0.87649752	     -4.52425311	      1.67032507	      0.87127428	      0.01318420	     -0.38014820	     -4.17492646	     -1.65284992	      3.01117466	      5.14629718	    -17.80648280	      0.00000000	     -1.17040016	     -2.31997102	      1.39476456	      1.75071613	      6.11996117	     -8.30478357	      0.00000000	     -5.59348277	      0.75849275	     -1.70376215	     11.58437517	     -6.52768480	     37.36848526	     69.43917855	     91.00579709	      9.91409580	     -4.41431849	     35.19233853	     57.54471389	     80.10185201
